<?xml version="1.0" encoding="utf-8"?>
<!-- Generator: Adobe Illustrator 22.1.0, SVG Export Plug-In . SVG Version: 6.00 Build 0)  -->
<svg version="1.1" id="Capa_1" xmlns="http://www.w3.org/2000/svg" xmlns:xlink="http://www.w3.org/1999/xlink" x="0px" y="0px"
	 viewBox="0 0 512 512" style="enable-background:new 0 0 512 512;" xml:space="preserve">
<style type="text/css">
	.st0{fill:#CCCCCC;}
	.st1{fill:none;stroke:#CCCCCC;stroke-width:22;stroke-miterlimit:10;}
</style>
<path class="st0" d="M407.7,190.7v-53.2C407.7,61.7,339.6,0,256,0S104.3,61.7,104.3,137.5v53.2c-32.2,5.6-56.9,33.7-56.9,67.5v185.3
	c0,37.8,30.7,68.5,68.5,68.5h280.1c37.8,0,68.5-30.7,68.5-68.5V258.2C464.6,224.4,440,196.3,407.7,190.7z M123.3,137.5
	C123.3,72.1,182.8,19,256,19s132.7,53.2,132.7,118.5v52.1H123.3V137.5z M445.6,443.5c0,27.3-22.2,49.6-49.6,49.6H115.9
	c-27.3,0-49.6-22.2-49.6-49.6V258.2c0-27.3,22.2-49.6,49.6-49.6h280.1c27.3,0,49.6,22.2,49.6,49.6V443.5z"/>
<polyline class="st1" points="236,316 316,387 471,269 "/>
</svg>
