<?xml version="1.0" encoding="utf-8"?>
<!-- Generator: Adobe Illustrator 22.1.0, SVG Export Plug-In . SVG Version: 6.00 Build 0)  -->
<svg version="1.1" id="Capa_1" xmlns="http://www.w3.org/2000/svg" xmlns:xlink="http://www.w3.org/1999/xlink" x="0px" y="0px"
	 viewBox="0 0 512 512" style="enable-background:new 0 0 512 512;" xml:space="preserve">
<style type="text/css">
	.st0{fill:#CCCCCC;}
</style>
<g>
	<path class="st0" d="M407.7,190.7v-53.2C407.7,61.7,339.6,0,256,0S104.3,61.7,104.3,137.5c0,5.2,4.2,9.5,9.5,9.5s9.5-4.2,9.5-9.5
		C123.3,72.1,182.8,19,256,19s132.7,53.2,132.7,118.5v52.1H115.9c-37.8,0-68.5,30.7-68.5,68.5v185.3c0,37.8,30.7,68.5,68.5,68.5
		h280.1c37.8,0,68.5-30.7,68.5-68.5V258.2C464.6,224.4,440,196.3,407.7,190.7z M445.6,443.5c0,27.3-22.2,49.6-49.6,49.6H115.9
		c-27.3,0-49.6-22.2-49.6-49.6V258.2c0-27.3,22.2-49.6,49.6-49.6h280.1c27.3,0,49.6,22.2,49.6,49.6V443.5z"/>
	<path class="st0" d="M256,265.5c-20.9,0-37.9,17-37.9,37.9v56.9c0,20.9,17,37.9,37.9,37.9s37.9-17,37.9-37.9v-56.9
		C293.9,282.5,276.9,265.5,256,265.5z M275,360.3c0,10.5-8.5,19-19,19c-10.5,0-19-8.5-19-19v-56.9c0-10.5,8.5-19,19-19
		c10.5,0,19,8.5,19,19V360.3z"/>
</g>
</svg>
